<svg xmlns="http://www.w3.org/2000/svg" xmlns:xlink="http://www.w3.org/1999/xlink" viewBox="0 0 467 350"><defs><style>.cls-1{isolation:isolate;}.cls-16,.cls-2,.cls-39{fill:#fff;}.cls-3{fill:#818182;}.cls-4{fill:#aaa;}.cls-5,.cls-6{fill:none;stroke:#aaa;stroke-miterlimit:10;}.cls-5{stroke-width:0.66px;}.cls-6{stroke-width:0.3px;}.cls-7{fill:#11997f;}.cls-23,.cls-7{opacity:0.4;}.cls-8{font-size:19.9px;font-family:DMSans-Bold, DM Sans;font-weight:700;}.cls-9{letter-spacing:-0.02em;}.cls-10{fill:#333;}.cls-11,.cls-39,.cls-41{opacity:0.2;}.cls-12{fill:#8c8c8c;}.cls-13{fill:#e84343;}.cls-14{fill:#e1e0e3;}.cls-15{fill:#a3a3a3;}.cls-16{opacity:0.3;}.cls-17{fill:#ccc;}.cls-18{fill:#a9a9aa;}.cls-19{fill:url(#linear-gradient);}.cls-20{fill:url(#linear-gradient-2);}.cls-21{mix-blend-mode:darken;}.cls-22{fill:#21064c;}.cls-23{fill:#36afee;}.cls-24{fill:#ffa600;}.cls-25{fill:#d8d8d8;}.cls-26{fill:#430880;}.cls-27{fill:url(#linear-gradient-3);}.cls-28{fill:url(#linear-gradient-4);}.cls-29{fill:url(#linear-gradient-5);}.cls-30{fill:url(#linear-gradient-6);}.cls-31{fill:url(#linear-gradient-7);}.cls-32{fill:url(#linear-gradient-8);}.cls-33{fill:url(#linear-gradient-9);}.cls-34{fill:url(#linear-gradient-10);}.cls-35{fill:#9d1088;}.cls-36{fill:#ac1f97;}.cls-37{fill:#b1249c;}.cls-38{fill:url(#linear-gradient-11);}.cls-40{fill:url(#linear-gradient-12);}.cls-42{fill:url(#linear-gradient-13);}</style><linearGradient id="linear-gradient" x1="-2165.19" y1="269.27" x2="-1704.45" y2="269.27" gradientTransform="matrix(-1, 0, 0, 1, -1701.32, 0)" gradientUnits="userSpaceOnUse"><stop offset="0" stop-color="#571c94"/><stop offset="1" stop-color="#3b0078"/></linearGradient><linearGradient id="linear-gradient-2" x1="221.46" y1="201.96" x2="240.56" y2="340.27" gradientUnits="userSpaceOnUse"><stop offset="0" stop-color="#7e1db2"/><stop offset="1" stop-color="#390076"/></linearGradient><linearGradient id="linear-gradient-3" x1="-2146.36" y1="247.98" x2="-2152.9" y2="259.31" gradientTransform="matrix(-1, 0, 0, 1, -1701.32, 0)" gradientUnits="userSpaceOnUse"><stop offset="0" stop-color="#fff" stop-opacity="0.6"/><stop offset="1" stop-color="#fff" stop-opacity="0"/></linearGradient><linearGradient id="linear-gradient-4" x1="-2316.62" y1="-552.72" x2="-2297.76" y2="-552.72" gradientTransform="matrix(-1, 0.08, 0.08, 1, -2226.73, 1010.52)" xlink:href="#linear-gradient-3"/><linearGradient id="linear-gradient-5" x1="-2072.68" y1="312.65" x2="-2059.51" y2="296.8" gradientTransform="matrix(-1, 0, 0, 1, -1701.32, 0)" gradientUnits="userSpaceOnUse"><stop offset="0" stop-color="#fff" stop-opacity="0"/><stop offset="1" stop-color="#fff" stop-opacity="0.6"/></linearGradient><linearGradient id="linear-gradient-6" x1="-1778.29" y1="312.65" x2="-1765.12" y2="296.8" xlink:href="#linear-gradient-5"/><linearGradient id="linear-gradient-7" x1="-1937.21" y1="265.06" x2="-1934.5" y2="257.23" gradientTransform="matrix(-1, 0, 0, 1, -1701.32, 0)" gradientUnits="userSpaceOnUse"><stop offset="0" stop-color="#fff" stop-opacity="0"/><stop offset="1" stop-color="#fff" stop-opacity="0.3"/></linearGradient><linearGradient id="linear-gradient-8" x1="-1875.5" y1="253.98" x2="-1872.91" y2="242.12" gradientTransform="matrix(-1, 0, 0, 1, -1701.32, 0)" gradientUnits="userSpaceOnUse"><stop offset="0" stop-color="#fff" stop-opacity="0"/><stop offset="1" stop-color="#fff" stop-opacity="0.2"/></linearGradient><linearGradient id="linear-gradient-9" x1="-2032.01" y1="265.06" x2="-2029.31" y2="257.23" xlink:href="#linear-gradient-7"/><linearGradient id="linear-gradient-10" x1="-1942.87" y1="201.5" x2="-1987.09" y2="278.1" xlink:href="#linear-gradient-3"/><linearGradient id="linear-gradient-11" x1="317.63" y1="217.24" x2="317.63" y2="186.93" gradientUnits="userSpaceOnUse"><stop offset="0" stop-color="#9d1088"/><stop offset="1" stop-color="#c538b0"/></linearGradient><linearGradient id="linear-gradient-12" x1="233.62" y1="216.92" x2="233.62" y2="189.07" xlink:href="#linear-gradient-11"/><linearGradient id="linear-gradient-13" x1="268.46" y1="219.77" x2="268.46" y2="194.94" xlink:href="#linear-gradient-11"/></defs><g class="cls-1"><g id="Layer_1" data-name="Layer 1"><rect class="cls-2" x="10.11" y="0.66" width="141.89" height="179.62"/><path class="cls-3" d="M152.66,180.93H9.45V0H152.66ZM10.77,179.62H151.34V1.32H10.77Z"/><path class="cls-4" d="M24.92,18.52H92.81a1.65,1.65,0,0,0,0-3.29H24.92a1.65,1.65,0,0,0,0,3.29Z"/><path class="cls-4" d="M24.92,43.06H141a.66.66,0,0,0,0-1.32h-116a.66.66,0,0,0,0,1.32Z"/><path class="cls-4" d="M24.92,49.38H142.15a.66.66,0,0,0,0-1.32H24.92a.66.66,0,0,0,0,1.32Z"/><path class="cls-4" d="M24.92,55.69H58.86a.66.66,0,0,0,0-1.31H24.92a.66.66,0,0,0,0,1.31Z"/><path class="cls-4" d="M53.62,65.68h14.1a.66.66,0,0,0,0-1.31H53.62a.66.66,0,0,0,0,1.31Z"/><path class="cls-4" d="M83.23,65.68h36.3a.66.66,0,0,0,0-1.31H83.23a.66.66,0,0,0,0,1.31Z"/><path class="cls-4" d="M25.39,65.68H45.23a.66.66,0,0,0,0-1.31H25.39a.66.66,0,0,0,0,1.31Z"/><path class="cls-4" d="M25.39,67.73h19a.33.33,0,0,0,0-.66h-19a.33.33,0,0,0,0,.66Z"/><path class="cls-4" d="M106.36,86.93h19a.33.33,0,0,0,0-.66h-19a.33.33,0,0,0,0,.66Z"/><path class="cls-4" d="M53.62,67.73h21.9a.33.33,0,0,0,0-.66H53.62a.33.33,0,0,0,0,.66Z"/><path class="cls-4" d="M25,86.93h21.9a.33.33,0,0,0,0-.66H25a.33.33,0,0,0,0,.66Z"/><path class="cls-4" d="M37,109.1h21.9a.33.33,0,0,0,0-.66H37a.33.33,0,0,0,0,.66Z"/><path class="cls-4" d="M37,113.72h21.9a.33.33,0,0,0,0-.66H37a.33.33,0,0,0,0,.66Z"/><path class="cls-4" d="M37,118.34h21.9a.33.33,0,0,0,0-.66H37a.33.33,0,0,0,0,.66Z"/><path class="cls-4" d="M37,123h21.9a.33.33,0,0,0,0-.65H37a.33.33,0,0,0,0,.65Z"/><path class="cls-4" d="M87.48,109.1h21.9a.33.33,0,0,0,0-.66H87.48a.33.33,0,0,0,0,.66Z"/><path class="cls-4" d="M87.48,113.72h21.9a.33.33,0,0,0,0-.66H87.48a.33.33,0,0,0,0,.66Z"/><path class="cls-4" d="M87.48,118.34h21.9a.33.33,0,0,0,0-.66H87.48a.33.33,0,0,0,0,.66Z"/><path class="cls-4" d="M87.48,123h21.9a.33.33,0,0,0,0-.65H87.48a.33.33,0,0,0,0,.65Z"/><path class="cls-4" d="M83.23,67.73h42.08a.33.33,0,0,0,0-.66H83.23a.33.33,0,0,0,0,.66Z"/><path class="cls-4" d="M54.93,86.93H97a.33.33,0,0,0,0-.66H54.93a.33.33,0,0,0,0,.66Z"/><path class="cls-4" d="M25.15,77.33H90.23a.33.33,0,0,0,0-.66H25.15a.33.33,0,0,0,0,.66Z"/><path class="cls-4" d="M25.15,96.53H141a.33.33,0,0,0,0-.66H25.15a.33.33,0,0,0,0,.66Z"/><path class="cls-4" d="M115.84,137.19h25a.33.33,0,0,0,0-.66h-25a.33.33,0,0,0,0,.66Z"/><path class="cls-4" d="M25,137.19H99.87a.33.33,0,0,0,0-.66H25a.33.33,0,0,0,0,.66Z"/><path class="cls-4" d="M88.67,147h52.18a.33.33,0,0,0,0-.65H88.67a.33.33,0,0,0,0,.65Z"/><path class="cls-4" d="M25,147h49a.33.33,0,0,0,0-.65H25a.33.33,0,0,0,0,.65Z"/><path class="cls-4" d="M104.27,156.38h36.58a.33.33,0,0,0,0-.65H104.27a.33.33,0,0,0,0,.65Z"/><path class="cls-4" d="M65.59,156.38H92.15a.33.33,0,0,0,0-.65H65.59a.33.33,0,0,0,0,.65Z"/><path class="cls-4" d="M25,156.38H51.85a.33.33,0,0,0,0-.65H25a.33.33,0,0,0,0,.65Z"/><path class="cls-4" d="M114.73,169.6h26.12a.33.33,0,0,0,0-.66H114.73a.33.33,0,0,0,0,.66Z"/><path class="cls-4" d="M25,169.6h73.4a.33.33,0,0,0,0-.66H25a.33.33,0,0,0,0,.66Z"/><path class="cls-4" d="M102.16,77.33H141a.33.33,0,0,0,0-.66H102.16a.33.33,0,0,0,0,.66Z"/><circle class="cls-5" cx="27.1" cy="108.23" r="1.71"/><circle class="cls-5" cx="27.1" cy="113.12" r="1.71"/><circle class="cls-5" cx="27.1" cy="118.01" r="1.71"/><circle class="cls-5" cx="27.1" cy="122.64" r="1.71"/><circle class="cls-5" cx="79.35" cy="108.23" r="1.71"/><circle class="cls-5" cx="79.35" cy="113.12" r="1.71"/><circle class="cls-5" cx="79.35" cy="118.01" r="1.71"/><circle class="cls-5" cx="79.35" cy="122.64" r="1.71"/><polyline class="cls-6" points="26.04 112.66 27.12 113.67 28.98 111.04"/><polyline class="cls-6" points="78.27 117.69 79.34 118.7 81.2 116.07"/><polyline class="cls-6" points="26.04 117.59 27.12 118.6 28.98 115.97"/><path class="cls-4" d="M25.31,75H82.79a.66.66,0,0,0,0-1.31H25.31a.66.66,0,0,0,0,1.31Z"/><path class="cls-4" d="M25.21,84.73H43.28a.66.66,0,0,0,0-1.31H25.21a.66.66,0,0,0,0,1.31Z"/><path class="cls-4" d="M25.21,154.38H43.28a.66.66,0,0,0,0-1.32H25.21a.66.66,0,0,0,0,1.32Z"/><path class="cls-4" d="M104.27,154.38h18.08a.66.66,0,0,0,0-1.32H104.27a.66.66,0,0,0,0,1.32Z"/><path class="cls-4" d="M114.81,168.06h18.07a.66.66,0,0,0,0-1.32H114.81a.66.66,0,0,0,0,1.32Z"/><path class="cls-4" d="M25.6,94.61h57a.66.66,0,0,0,0-1.32h-57a.66.66,0,0,0,0,1.32Z"/><path class="cls-4" d="M25.12,135.18h57a.66.66,0,0,0,0-1.32h-57a.66.66,0,0,0,0,1.32Z"/><path class="cls-4" d="M85.76,94.61h31.6a.66.66,0,0,0,0-1.32H85.76a.66.66,0,0,0,0,1.32Z"/><path class="cls-4" d="M120.33,94.61h16.2a.66.66,0,0,0,0-1.32h-16.2a.66.66,0,0,0,0,1.32Z"/><path class="cls-4" d="M55.14,84.73H84.57a.66.66,0,0,0,0-1.31H55.14a.66.66,0,0,0,0,1.31Z"/><path class="cls-4" d="M25,144.73H73.1a.66.66,0,0,0,0-1.32H25a.66.66,0,0,0,0,1.32Z"/><path class="cls-4" d="M88.67,144.73h48.07a.66.66,0,0,0,0-1.32H88.67a.66.66,0,0,0,0,1.32Z"/><path class="cls-4" d="M106.2,84.73h18.37a.66.66,0,0,0,0-1.31H106.2a.66.66,0,0,0,0,1.31Z"/><path class="cls-4" d="M116.13,135.18H134.5a.66.66,0,0,0,0-1.32H116.13a.66.66,0,0,0,0,1.32Z"/><path class="cls-4" d="M66.34,154.38H84.71a.66.66,0,0,0,0-1.32H66.34a.66.66,0,0,0,0,1.32Z"/><path class="cls-4" d="M102.05,75h33a.66.66,0,0,0,0-1.31h-33a.66.66,0,0,0,0,1.31Z"/><path class="cls-4" d="M25.92,169.67c2.78,1.28,5.28-.83,6.59-3.15.54-1,3.42-7.28.85-7.17a.67.67,0,0,0-.64.48c-1.13,4.67.42,9.39-.1,14.1l1.3-.18A9.47,9.47,0,0,1,35,167.16H33.86a47.14,47.14,0,0,1,2,4.39.66.66,0,0,0,1.27,0l.65-1.57a6.37,6.37,0,0,1,.36-.89c.15-.24.17-.22.38,0a7.29,7.29,0,0,1,1.6,2.62.67.67,0,0,0,1.1.29,17.59,17.59,0,0,1,3.68-2.92l-.9-.24A4,4,0,0,0,47.65,171a4.09,4.09,0,0,0,3.7-2.58,7.72,7.72,0,0,0,.61-5.69,5.19,5.19,0,0,0-3.49-3.43.67.67,0,0,0-.81.81c.75,4.27,3,8.35,2.76,12.76,0,.1,0,.65-.06.73l-.59-.14a7.13,7.13,0,0,1-1.54-.57c-.41-.2-.91-.43-1-.93a3.07,3.07,0,0,1,.27-1.46A5.92,5.92,0,0,1,49,168.27c.61-.57,1.75-1.43,2.64-1.25.59.12,1.11.76,1.55,1.14l1.57,1.37,3.15,2.74a.66.66,0,0,0,1.12-.46.18.18,0,0,1,.18-.14.67.67,0,0,0,.81-.46,3,3,0,0,1,3.4-1.67,7.2,7.2,0,0,1,4,2.87c.51.64,1.3-.17,1-.79a4.14,4.14,0,0,1-.09-2.82c.18-.57,1.18-2.53,1.93-1.94a6.71,6.71,0,0,1,1.45,2.48,5.86,5.86,0,0,0,1.67,2.26c1.82,1.38,4.27.85,6.1-.22s3.7-2.68,3.39-5.11a13.2,13.2,0,0,0-3.61-6.81c-.58-.62-1.51.31-.93.93a14.53,14.53,0,0,1,2.06,2.86,8.82,8.82,0,0,1,1.2,3.35A3.19,3.19,0,0,1,80,169.45,8.5,8.5,0,0,1,77.06,171a3.41,3.41,0,0,1-3.1-.59A7,7,0,0,1,72.53,168a5.92,5.92,0,0,0-1.64-2.35c-.93-.68-1.88-.11-2.58.61a5.52,5.52,0,0,0-1,6l1-.8c-1.31-1.61-3-3.15-5.22-3.3a4.24,4.24,0,0,0-4.35,2.68l.81-.46a1.52,1.52,0,0,0-1.84,1.41l1.12-.47-3.61-3.14-1.76-1.54a3.55,3.55,0,0,0-1.59-.92,4.49,4.49,0,0,0-3.4,1.24,7.06,7.06,0,0,0-2.05,2.72c-.44,1-.81,2.34-.12,3.32a5.75,5.75,0,0,0,3.33,1.72,1.86,1.86,0,0,0,1.58-.1,2.06,2.06,0,0,0,.53-1.59A15.73,15.73,0,0,0,51.4,169c-.63-3.14-1.91-6.12-2.47-9.28l-.81.81c3.07.83,3.26,4.56,2.18,7a3,3,0,0,1-2.57,2.11,2.75,2.75,0,0,1-2.57-1.48.66.66,0,0,0-.9-.24,18.91,18.91,0,0,0-3.94,3.13l1.1.29a11.48,11.48,0,0,0-1.14-2.2,3.37,3.37,0,0,0-1.69-1.54,1.37,1.37,0,0,0-1.58.9c-.41.88-.75,1.8-1.12,2.7h1.27q-1-2.4-2.17-4.7a.66.66,0,0,0-1.13,0,10.88,10.88,0,0,0-1.21,7.6c.16.78,1.21.51,1.29-.17.5-4.58-1-9.22.05-13.75l-.63.49c-.22-.19-.31-.16-.27.08s0,.29-.07.43l-.12.65c-.11.5-.25,1-.41,1.48a13.59,13.59,0,0,1-1.27,2.8c-.91,1.53-2.69,3.32-4.64,2.42-.76-.35-1.43.78-.66,1.14Z"/><rect class="cls-7" x="19.4" y="20.39" width="120.67" height="28.85" transform="translate(-4.46 12.9) rotate(-9)"/><text class="cls-8" transform="translate(28.99 51.07) rotate(-9)">APPR<tspan class="cls-9" x="50.51" y="0">O</tspan><tspan x="65.79" y="0">VED</tspan></text><path class="cls-10" d="M185.89,130.61a9,9,0,0,0-17.25,5,4.51,4.51,0,0,0-2.74,5.47l7.87,27.06a4.5,4.5,0,0,0,5.59,3.06l16.74-4.87a4.5,4.5,0,0,0,3.07-5.58l-7.87-27.06A4.5,4.5,0,0,0,185.89,130.61Zm-10.43-3.68a6.51,6.51,0,0,1,8,4.36L171,134.93A6.51,6.51,0,0,1,175.46,126.93Z"/><rect class="cls-11" x="172.08" y="138.03" width="15.88" height="7.63" rx="1.27" transform="translate(-32.46 55.94) rotate(-16.22)"/><rect class="cls-11" x="174.8" y="147.34" width="15.91" height="7.82" rx="1.29" transform="matrix(0.96, -0.28, 0.28, 0.96, -34.98, 57.08)"/><rect class="cls-11" x="177.5" y="156.61" width="15.97" height="7.89" rx="1.3" transform="translate(-37.47 58.21) rotate(-16.22)"/><rect class="cls-12" x="172.04" y="138.1" width="15.49" height="7.4" rx="1.24" transform="translate(-32.45 55.87) rotate(-16.22)"/><rect class="cls-12" x="174.75" y="147.4" width="15.49" height="7.4" rx="1.24" transform="translate(-34.95 57) rotate(-16.22)"/><rect class="cls-13" x="177.45" y="156.7" width="15.49" height="7.4" rx="1.24" transform="translate(-37.44 58.12) rotate(-16.22)"/><path class="cls-2" d="M185.24,152.52l-.7-2.39a.57.57,0,0,0-.71-.4l-.07,0a1.89,1.89,0,0,0-.72-1.15,1.51,1.51,0,0,0-2.3,1.55c0,.15.08.3.12.45l-.07,0a.57.57,0,0,0-.39.71l.7,2.39a.57.57,0,0,0,.71.39l3-.88A.58.58,0,0,0,185.24,152.52Zm-4.15-3.05a1.2,1.2,0,0,1,1.61-.7,1.17,1.17,0,0,1,.65.71c0,.12.08.24.11.36l-2.3.67A1.62,1.62,0,0,1,181.09,149.47Z"/><path class="cls-2" d="M182.6,143.44l-.7-2.39a.57.57,0,0,0-.71-.39l-.08,0a2.61,2.61,0,0,0-.27-.72,1.51,1.51,0,0,0-2.67.3c-.07.18.23.27.3.08a1.2,1.2,0,0,1,2.16-.13,3.58,3.58,0,0,1,.19.55h0l-2.67.78a.58.58,0,0,0-.39.71l.7,2.39a.58.58,0,0,0,.71.4l3-.89A.57.57,0,0,0,182.6,143.44Z"/><path class="cls-2" d="M184.26,158.92l-.82,1-1,.3a.31.31,0,0,0-.21.38l.45,1.56a.31.31,0,0,0,.39.21l1-.29,1.24.42a.31.31,0,0,0,.4-.38l-.9-3.11A.31.31,0,0,0,184.26,158.92Z"/><path class="cls-2" d="M185.76,160.6l2.31-.67.32-.1a.16.16,0,0,0-.09-.3l-2.3.68-.33.09a.16.16,0,0,0,.09.3Z"/><path class="cls-2" d="M185.74,159.66l.85-1.55.12-.22c.09-.17-.18-.32-.27-.15l-.85,1.55-.12.22c-.1.17.17.32.27.15Z"/><path class="cls-2" d="M185.92,161.4l1.61.88.22.13a.15.15,0,0,0,.15-.27l-1.6-.88-.23-.13a.15.15,0,0,0-.15.27Z"/><path class="cls-14" d="M154.37,147.8v5.75a.62.62,0,0,0,.62.62h1.38v27.37a1.17,1.17,0,0,0,.12.52l1.41,3a.62.62,0,0,0,.56.36h1.14a.63.63,0,0,0,.56-.35l1.48-3a1.29,1.29,0,0,0,.12-.54V154.17h1.64a.61.61,0,0,0,.62-.62V147.8Z"/><path class="cls-15" d="M159.52,160.9l0,3c0,1.24,0,2.48,0,3.71l0,4.07,0,4.11,0,3.83,0,3.24c0,.78,0,1.55,0,2.33v.2a.68.68,0,0,0,.31-.14c0-.58,0-1.15,0-1.73l0-3c0-1.24,0-2.48,0-3.72l0-4.07,0-4.11,0-3.83c0-1.08,0-2.16,0-3.23,0-.78,0-1.56,0-2.33,0-.37,0-.74,0-1.1v0a.16.16,0,0,0-.31,0v.76C159.51,159.53,159.52,160.22,159.52,160.9Z"/><path class="cls-15" d="M158.06,152.87a6,6,0,0,1,.07,1.53v31a.67.67,0,0,0,.31.1V154.77c0-.43,0-.87,0-1.3a2.63,2.63,0,0,0-1.47-2.36,5.53,5.53,0,0,0-2.43-.26h-.17v.31h1.35A2.35,2.35,0,0,1,158.06,152.87Z"/><path class="cls-11" d="M171,134.93a6.53,6.53,0,0,1,1.79-6.48,4.63,4.63,0,0,0-1.92-1.58,9,9,0,0,0-1.93,2.94,1.68,1.68,0,0,1,.27.91,1.65,1.65,0,0,1-.88,1.46,9.09,9.09,0,0,0,.29,3.46,4.51,4.51,0,0,0-2.74,5.47l2.3,7.9a10.55,10.55,0,0,0,5.45-9.23v-5.62Z"/><path class="cls-10" d="M167.2,125.26h-16a4.65,4.65,0,0,0-4.65,4.65v8.67a10.54,10.54,0,0,0,10.54,10.54h4.23a10.54,10.54,0,0,0,10.54-10.54v-8.67A4.65,4.65,0,0,0,167.2,125.26Zm-1.43,5.93H152.36a1.67,1.67,0,1,1,0-3.33h13.41a1.67,1.67,0,1,1,0,3.33Z"/><path class="cls-16" d="M155.14,126.58c-.67.15-3.51.31-4.18.47a2.9,2.9,0,0,0-1.71,1.07,4.34,4.34,0,0,0-.5,2.5c0,.65,0,1.3,0,1.95,0,.33,0,.67,0,1a2.48,2.48,0,0,1-.05.95,5.42,5.42,0,0,1-.16-1.21c-.05-.42-.1-.83-.13-1.25a19.45,19.45,0,0,1-.08-2.53,4.92,4.92,0,0,1,.18-1.21,2.68,2.68,0,0,1,.86-1.29,4,4,0,0,1,2.8-.68Z"/><path class="cls-17" d="M167.44,130.44a20.39,20.39,0,1,1,20.38-20.39A20.41,20.41,0,0,1,167.44,130.44Zm0-39.54a19.15,19.15,0,1,0,19.14,19.15A19.17,19.17,0,0,0,167.44,90.9Z"/><path class="cls-10" d="M161.4,126.43a4.56,4.56,0,0,0,.36,1.43h4a1.67,1.67,0,1,1,0,3.33h-.5q.51.26,1,.45a13.4,13.4,0,0,0,2,.53c.69.12,1.38.17,2.07.25.5.07,1,.13,1.54.16v-2.67a4.65,4.65,0,0,0-4.65-4.65h-5.77A6.54,6.54,0,0,0,161.4,126.43Z"/><rect class="cls-18" y="344.15" width="467" height="5.85" rx="2.92"/><path class="cls-19" d="M3.21,297.5c.46-8,3.16-16.09,8.82-21.74,4.92-4.91,11.61-7.58,18.18-9.87C61.41,255,86,252.9,118.94,250c30.5-2.67,58.54-27.79,84.69-35.83,48.83-15,126.15-7.16,167.85,5.82,23.45,7.3,51.43,19.73,75.56,20a14.14,14.14,0,0,1,13.83,12.16,399.08,399.08,0,0,1,3,44.62,36.83,36.83,0,0,1-21.72,20.54h-8.87c-7.11,4.19-13.84,7.54-18.09,8.22-8.67,1.38-28.66,5.19-34.74,5.22L43.17,332.54a34.44,34.44,0,0,1-14.35-3l-17.89-8a9.58,9.58,0,0,1-6.21-6.9A67.6,67.6,0,0,1,3.21,297.5Z"/><path class="cls-20" d="M3.21,297.5c.46-8,3.16-16.09,8.82-21.74,4.92-4.91,11.61-7.58,18.18-9.87C61.41,255,86,252.9,118.94,250c30.5-2.67,58.54-27.79,84.69-35.83,48.83-15,126.15-7.16,167.85,5.82,23.45,7.3,51.43,19.73,75.56,20a14.14,14.14,0,0,1,13.83,12.16,399.08,399.08,0,0,1,3,44.62s0,19.53-48.68,28.76c-8.63,1.63-28.66,5.19-34.74,5.22L43.17,332.54a34.44,34.44,0,0,1-14.35-3l-17.89-8a9.58,9.58,0,0,1-6.21-6.9A67.6,67.6,0,0,1,3.21,297.5Z"/><g class="cls-21"><path class="cls-22" d="M442.07,317.33l-1.69.65c-5.17,1.92-10.76,3.52-14.31,4.74-8.57,2.93-24.57,8-30.65,8L43.17,332.54a34.44,34.44,0,0,1-14.35-3l-17.89-8a9.72,9.72,0,0,1-5.34-4.13Z"/></g><path class="cls-2" d="M150.7,253.59a1.57,1.57,0,0,1-.73-3c19.05-8.82,37.11-21.54,54.34-26.84,48-14.76,123.46-7.43,165.64,5.14a1.58,1.58,0,0,1,.72,2.55C365.78,237,358.6,239.86,351.4,242c-8,2.35-16.36,2.9-24.66,3.43Z"/><path class="cls-23" d="M150.7,253.59a1.57,1.57,0,0,1-.73-3c19.05-8.82,37.11-21.54,54.34-26.84,48-14.76,123.46-7.43,165.64,5.14a1.58,1.58,0,0,1,.72,2.55C365.78,237,358.6,239.86,351.4,242c-8,2.35-16.36,2.9-24.66,3.43Z"/><path class="cls-24" d="M38.48,268.25a3.33,3.33,0,0,0,0-1.14,2.14,2.14,0,0,0-.5-1h0a1.57,1.57,0,0,0-1.65-.35C32.88,267,19,271.82,17.54,274.3c-1.38,2.31-1.32,6.4-1.15,8.75a1.79,1.79,0,0,0,1.94,1.66l1.64-.14a12.83,12.83,0,0,0,8.74-4.49L38,269.13A1.46,1.46,0,0,0,38.48,268.25Z"/><path d="M20,293.41a3.5,3.5,0,0,1,1.77,3.07,3,3,0,0,1-.41,1.77l-7.78,14.12a4.18,4.18,0,0,1-3.67,2.17H4.71a67.89,67.89,0,0,1-1.5-17,41.78,41.78,0,0,1,.52-4.57H18.18A3.55,3.55,0,0,1,20,293.41Z"/><path class="cls-24" d="M437,250.52h23.53a15.08,15.08,0,0,1,.34,1.65c.37,2.67,1.1,9.07,1.74,17.05l-14.46-.28c-3.25,0-5.82-1.24-7.27-3.48l-7-10.87C432.89,253.12,434.87,250.52,437,250.52Z"/><circle cx="369.23" cy="309" r="34.71"/><circle class="cls-25" cx="369.23" cy="309" r="18.08"/><circle cx="73.84" cy="309" r="34.71"/><circle class="cls-25" cx="73.84" cy="309" r="18.08"/><path class="cls-26" d="M161.22,254.88c-.9,5.1,2.44,12.3,19.83,10.17a5.08,5.08,0,0,0,4-3.33c3.93-11.54-.6-19.39-6.21-20C174.45,241.33,162.55,247.34,161.22,254.88Z"/><path class="cls-27" d="M437.83,254.4a1.77,1.77,0,0,0-1,.41l-.7-1.07a1.66,1.66,0,0,1,.44-.76,1.79,1.79,0,0,1,1.16-.61h22.08l0,.1c.07.53.15,1.19.25,1.93Z"/><path class="cls-28" d="M34.78,269.59a1.25,1.25,0,0,0,0-.28l-.85.31c-9.16,3.28-13.41,5.2-15.35,6.31a5.31,5.31,0,0,1,.53-1.3c.51-.7,3.37-2.58,16.81-7.39l.85-.31a1.26,1.26,0,0,1,0,.28v.05l-2,2.33Z"/><path class="cls-29" d="M371.3,298.85a14.7,14.7,0,0,0-13.54,20.4,14.69,14.69,0,1,1,24.58-15.39A14.64,14.64,0,0,0,371.3,298.85Z"/><path class="cls-30" d="M76.91,298.85a14.7,14.7,0,0,0-13.54,20.4A14.69,14.69,0,1,1,88,303.86,14.64,14.64,0,0,0,76.91,298.85Z"/><rect x="319.93" y="260.45" width="21.04" height="6.7" rx="3.35" transform="translate(660.9 527.59) rotate(180)"/><rect x="225.13" y="260.45" width="21.04" height="6.7" rx="3.35" transform="translate(471.29 527.59) rotate(180)"/><path class="cls-31" d="M228.59,260.45h13.87a3.48,3.48,0,0,1,3,1.79h-16.3a3.48,3.48,0,0,0-3.46,3.47h0v.16a3.47,3.47,0,0,1-.6-2h0A3.47,3.47,0,0,1,228.59,260.45Z"/><path class="cls-32" d="M180.07,246.86c-3.69-.36-12.55,3.74-16.18,9.47a5.76,5.76,0,0,1,.09-1.19c1-5.76,10.81-11.15,14.82-11.15h.25a5.29,5.29,0,0,1,3.84,2.65,8.88,8.88,0,0,1,.89,1.8A6.91,6.91,0,0,0,180.07,246.86Z"/><path class="cls-33" d="M323.4,260.45h13.86a3.51,3.51,0,0,1,3,1.79H324a3.48,3.48,0,0,0-3.46,3.47h0a.92.92,0,0,0,0,.16,3.4,3.4,0,0,1-.61-2h0A3.48,3.48,0,0,1,323.4,260.45Z"/><path class="cls-34" d="M178.89,241.77c-3.18-.31-10.2,2.69-14.41,7.19l-5.57.26c5.35-2.71,10.62-5.63,15.76-8.48,11.17-6.19,21.72-12,31.94-15.18,17.14-5.27,39.52-8.05,64.74-8.05,32.9,0,69.74,4.78,96.88,12.53a22.15,22.15,0,0,1-1.92,1.56,448.22,448.22,0,0,0-77.75-7.06c-28.08,0-53,3.1-72.1,9-9.93,3.05-20.13,8.4-30.83,14.28C184.31,244.22,181.74,242.05,178.89,241.77Z"/><path class="cls-35" d="M256.66,159.16a31.57,31.57,0,0,0-4.16,20.56c1.35,7.7,7.05,14.75,14.62,16.69s16.52-2.06,19.26-9.38c3.38,2.8,2.5,9.11-.75,12.06s-7.86,3.75-12.21,4.31c-5.53.72-11.4,1.19-16.45-1.2-4.42-2.1-7.08-6.07-9.09-10.54a29,29,0,0,1-1.59-19.4C248.12,166.05,257.25,158.21,256.66,159.16Z"/><path class="cls-35" d="M238.54,175.8a19.05,19.05,0,0,1-.92-6,23.89,23.89,0,0,1,1.08-5.42,5.71,5.71,0,0,1,1-2.44c2.28-1.94,6.7,8.92,8.48,13.1,1.67,3.88,2.12,11.92,2.64,16.12.13,1,.23,2.09.46,3.12a10.34,10.34,0,0,0,.49,1.55c.09.21.74,1.09.67,1.26-.19.46-1.92-1.36-2.17-1.61-.76-.75-1.49-1.52-2.19-2.32a45.71,45.71,0,0,1-7-10.64A44.34,44.34,0,0,1,238.54,175.8Z"/><path class="cls-36" d="M288.15,153a24.59,24.59,0,0,0-18.28-3.38c-14.81,2.87-25.75,17.45-24.43,32.57s14.39,25.06,29.2,22.19,25.75-17.45,24.43-32.58A24.64,24.64,0,0,0,288.15,153Zm7.3,21.31c1.91,13.69-7.55,26.74-21.06,29.53-15.9,3.28-26.08-6.34-28-20a26.62,26.62,0,0,1,21.06-29.53,23.46,23.46,0,0,1,28,20Z"/><path class="cls-35" d="M296.86,184.76c1.19-8.41,1.72-17.2,6.31-24.36C304.92,170.12,300.81,177,296.86,184.76Z"/><path class="cls-37" d="M278.79,164.39a25.44,25.44,0,0,0-11.23-.27c-12.78,2.48-22.07,13.5-20.73,24.62.8,6.64,5.21,11.82,11.36,14.38a12.52,12.52,0,0,1-5.25-8.73c-1-8,5.73-16,14.95-17.75a18.31,18.31,0,0,1,8.1.19c5.54,1.43,9.68,5.55,10.35,11.09.62,5.19-2,10.36-6.38,13.83,8.68-4.5,14.24-13.21,13.18-22C292.22,172.09,286.47,166.37,278.79,164.39Z"/><path class="cls-37" d="M283,200c8.63-1.54,18-3.17,26.63-4.71,3.06-.54,6.2-1.12,8.89-2.67,4.43-2.55,6.74-8.49,8.1-13.41,1.46-5.24,2.13-8.38,1.57-12.42a1.16,1.16,0,0,0-.82-.95,213,213,0,0,0-24.2-5.41,37.16,37.16,0,0,1-3.53,16.91A40.07,40.07,0,0,1,283,200Z"/><path class="cls-37" d="M255.87,199.11c-8.34-9.82-16.37-24.31-16.17-37.19a202,202,0,0,1-21.06,6.47,2,2,0,0,0-1.55,2,29.29,29.29,0,0,0,10.69,22.23C234.72,198.31,247.19,201.47,255.87,199.11Z"/><path class="cls-35" d="M253.63,200.34c-3.94-2.43-14.29-6.73-18.74-8-1.63-.47-13.86-1.17-13.71,1.84.08,1.52,1.24.56,8.06,2.51C233.84,198,250.32,201.35,253.63,200.34Z"/><path class="cls-35" d="M252.62,207.14a37.34,37.34,0,0,1,8-4.18l-.05-.11c-1.19-2.21-4.37-1.47-6.39-1.32-3,.23-20.82,5.85-23.53,6.2-5.36.68-7.68-.12-10-1.78-.06,0,.08,0,0,0a10.55,10.55,0,0,0,.5,3.35c1.31,3.88,5.25,6.48,9.31,7s8.18-.68,11.82-2.56A115.53,115.53,0,0,0,252.62,207.14Z"/><path class="cls-35" d="M284.92,204.09a3.88,3.88,0,0,1-2.57-1.85,9.13,9.13,0,0,1-1.09-3.05,24.46,24.46,0,0,0-.74-3.18c0,2.35-.11,4.54-.07,6.89,0,.46-.39,1.39,0,1.66s1.24-.07,1.52-.07A8.44,8.44,0,0,0,284.92,204.09Z"/><path class="cls-35" d="M284.1,214.72c0,2.82-.47,2.91-1.26,3.41a72,72,0,0,1-2.36-14c1.33,0-.09-5.75,2.27-5.4.71.11,2.57,5.22,2.6,5.92a12.19,12.19,0,0,1-.25,2C284.77,209.32,284.08,212,284.1,214.72Z"/><path class="cls-35" d="M282.47,199.31a5.3,5.3,0,0,0,.93,1.81,51.93,51.93,0,0,0,5,6.21c4.35,4.2,10.25,6.34,16,8.19,3.18,1,6.75,2,9.76.5a8.43,8.43,0,0,0,4-4.69,16,16,0,0,0,.82-6.22,19.68,19.68,0,0,0-2-8.51,11.74,11.74,0,0,0-6.39-5.76,12.21,12.21,0,0,0-7.35,0,24.46,24.46,0,0,0-6.63,3.39,56.24,56.24,0,0,1-5.9,3.9A15.11,15.11,0,0,1,282.47,199.31Z"/><path class="cls-38" d="M307.85,216.47c7.9,1.56,16.12.6,23.86-1.62a8.74,8.74,0,0,0,4.83-3.75,12.91,12.91,0,0,0,1.89-5.89,17.1,17.1,0,0,0-3.71-12.09c-2.73-3.35-6.84-6.79-11.11-6.1-6.79,1.1-13.23,2-19.95,3.49a16.71,16.71,0,0,0-6.9,3.63c6-4.36,10.9-3.94,14.09-2a11.86,11.86,0,0,1,4.26,5.14c1.91,3.84,2.89,8.35,1.64,12.46S312.14,216.67,307.85,216.47Z"/><path class="cls-39" d="M278.79,164.39a25.44,25.44,0,0,0-11.23-.27A27.6,27.6,0,0,0,255.13,170l4.73,10.15a20,20,0,0,1,8-3.5,18.31,18.31,0,0,1,8.1.19,14.68,14.68,0,0,1,6.94,3.94l7.53-8.36A19.66,19.66,0,0,0,278.79,164.39Z"/><path class="cls-39" d="M239.7,161.92a202,202,0,0,1-21.06,6.47,2,2,0,0,0-1.55,2,26,26,0,0,0,.61,5.76l24.12-1.43A40,40,0,0,1,239.7,161.92Z"/><path class="cls-39" d="M300.94,174.17l26.58,1.58a22.49,22.49,0,0,0,.67-9,1.15,1.15,0,0,0-.32-.64l-24.68-4.49A36.81,36.81,0,0,1,300.94,174.17Z"/><path class="cls-40" d="M252.62,207.14a115.53,115.53,0,0,1-10.34,6.63c-3.64,1.88-7.76,3.11-11.82,2.56s-8-3.15-9.31-7A11.88,11.88,0,0,1,221,203c1.18-5.29,5.45-10,10.78-10.79a50.52,50.52,0,0,1,9.61,2.5c4,1.33,8.27,4.29,12.25,5.62a59,59,0,0,0-14.74-7.29c-1.95-.59-7-2-9.44-2.45h0q-1.36-.33-2.73-.63a33.6,33.6,0,0,0-6.45-.89,17.1,17.1,0,0,0-10,2.89,13.32,13.32,0,0,0-5.61,8.66,11,11,0,0,0,3.18,9.68,18.53,18.53,0,0,0,7,3.55,57.57,57.57,0,0,0,12.72,2.94A26.35,26.35,0,0,0,240.3,215c7.91-3.44,14.82-8.78,22.48-12.7A32.71,32.71,0,0,0,252.62,207.14Z"/><path class="cls-39" d="M334.72,193.12a25.16,25.16,0,0,0-2.57-2.72l-19.78,2.89h0a10.27,10.27,0,0,1,1.15,1.31l.09.13c.17.24.34.48.5.73l.13.2.18.3.22.39.14.24.33.64h0l.06.13.08.16,22.07.1A17,17,0,0,0,334.72,193.12Z"/><g class="cls-41"><path class="cls-2" d="M219.48,189.08h-.17l.32,0A.39.39,0,0,0,219.48,189.08Z"/><path class="cls-2" d="M210.21,192a14.22,14.22,0,0,0-3.07,2.93,105.8,105.8,0,0,0,15,4.81,14,14,0,0,1,6.69-6.65c-2.6-.37-5.15-.77-7.76-1.12a4.92,4.92,0,0,1-1.7-.45,1.63,1.63,0,0,1-.93-1.4,1.08,1.08,0,0,1,.85-1h0A16.92,16.92,0,0,0,210.21,192Z"/></g><path class="cls-42" d="M280.63,199.82a56.35,56.35,0,0,0,.65,9.46c.39,2.23.6,4.11,1.07,6.33a3.16,3.16,0,0,0,.74,1.26c.26.21.77.15.84-.19a1.27,1.27,0,0,1-.38,1.11,1.31,1.31,0,0,1-1.15.32c-8.62-1.82-17.34,1-26.13,1.65a.63.63,0,0,1-.67-.47A67.72,67.72,0,0,1,253,198.2a.65.65,0,0,1,.64-.62A217.18,217.18,0,0,0,280.09,195a.66.66,0,0,1,.75.7C280.71,197.19,280.74,198.25,280.63,199.82Z"/><path class="cls-39" d="M280.75,197.13A119.87,119.87,0,0,1,259.09,200c-2.19,0-5.23-.54-6.09-1.5-.07,2.25,0,4.51.13,6.75a179.82,179.82,0,0,1,27.51-3.86c0-.52,0-1,0-1.53C280.7,198.8,280.72,198,280.75,197.13Z"/></g></g></svg>